<?xml version="1.0" encoding="UTF-8"?>
<!DOCTYPE svg PUBLIC "-//W3C//DTD SVG 1.1//EN" "http://www.w3.org/Graphics/SVG/1.1/DTD/svg11.dtd">
<svg xmlns="http://www.w3.org/2000/svg" version="1.1" width="1200px" height="1167px" style="shape-rendering:geometricPrecision; text-rendering:geometricPrecision; image-rendering:optimizeQuality; fill-rule:evenodd; clip-rule:evenodd" xmlns:xlink="http://www.w3.org/1999/xlink">
<g><path style="opacity:0.992" fill="#00a0ff" d="M 590.5,82.5 C 631.257,81.105 656.424,100.105 666,139.5C 666.985,228.53 666.651,317.53 665,406.5C 655.406,439.262 633.572,456.595 599.5,458.5C 569.991,457.334 549.158,443.334 537,416.5C 535.039,411.323 533.706,405.99 533,400.5C 532.333,313.5 532.333,226.5 533,139.5C 539.468,107.531 558.635,88.5313 590.5,82.5 Z"/></g>
<g><path style="opacity:0.992" fill="#00a0ff" d="M 153.5,404.5 C 161.268,404.974 168.935,406.141 176.5,408C 255.229,433.465 333.896,459.132 412.5,485C 441.686,499.863 454.852,523.696 452,556.5C 442.102,597.709 415.936,616.542 373.5,613C 296.71,588.737 220.043,564.07 143.5,539C 101.137,525.774 83.6366,497.274 91,453.5C 101.461,423.866 122.294,407.533 153.5,404.5 Z"/></g>
<g><path style="opacity:0.992" fill="#00a0ff" d="M 1040.5,404.5 C 1083.04,407.206 1106.37,429.706 1110.5,472C 1109.08,501.854 1094.74,522.854 1067.5,535C 986.957,561.403 906.29,587.403 825.5,613C 783.064,616.542 756.898,597.709 747,556.5C 744.148,523.696 757.314,499.863 786.5,485C 865.167,459.333 943.833,433.667 1022.5,408C 1028.58,406.503 1034.58,405.336 1040.5,404.5 Z"/></g>
<g><path style="opacity:0.991" fill="#00a0ff" d="M 457.5,731.5 C 490.354,729.167 514.187,742.501 529,771.5C 536.992,791.951 535.992,811.951 526,831.5C 477.333,898.833 428.667,966.167 380,1033.5C 361.103,1056.69 336.936,1065.19 307.5,1059C 271.514,1046.22 255.347,1020.72 259,982.5C 259.997,975.843 261.997,969.51 265,963.5C 315,894.167 365,824.833 415,755.5C 426.38,742.398 440.547,734.398 457.5,731.5 Z"/></g>
<g><path style="opacity:0.992" fill="#00a0ff" d="M 721.5,731.5 C 746.443,729.064 767.276,737.064 784,755.5C 833.667,824.167 883.333,892.833 933,961.5C 947.63,994.355 941.796,1022.86 915.5,1047C 886.39,1066.73 857.723,1066.06 829.5,1045C 825.631,1041.47 822.131,1037.63 819,1033.5C 770.333,966.167 721.667,898.833 673,831.5C 657.731,798.26 663.564,769.426 690.5,745C 699.963,738.263 710.296,733.763 721.5,731.5 Z"/></g>
</svg>
